<?xml version="1.0" encoding="UTF-8"?>
<svg version="1.1" xmlns="http://www.w3.org/2000/svg" width="512" height="512">
<path d="M0 0 C0.96594086 0.00054382 1.93188171 0.00108765 2.92709351 0.00164795 C18.82427694 0.04267209 34.1070568 0.96742637 49.6875 4.375 C51.16669922 4.69645996 51.16669922 4.69645996 52.67578125 5.02441406 C101.53665776 16.02291411 149.39188546 42.47830381 181.6875 81.375 C182.46996094 82.24640625 183.25242187 83.1178125 184.05859375 84.015625 C213.00993644 116.51674278 232.16563537 159.5009304 238.6875 202.375 C238.86265137 203.49511475 239.03780273 204.61522949 239.21826172 205.76928711 C240.8222463 217.07945314 241.08675288 228.27504914 241.0625 239.6875 C241.06168427 241.13641129 241.06168427 241.13641129 241.06085205 242.61459351 C240.91942085 297.42031418 222.15513018 351.27730465 186.6875 393.375 C186.24293457 393.90834961 185.79836914 394.44169922 185.34033203 394.99121094 C176.46755486 405.62194229 167.31894347 415.5049157 156.45703125 424.1640625 C154.64230999 425.61276804 152.84694774 427.08613988 151.07421875 428.5859375 C109.76426566 463.46989788 54.93725882 480.86382648 1.375 480.75 C0.40905914 480.74945618 -0.55688171 480.74891235 -1.55209351 480.74835205 C-17.44927694 480.70732791 -32.7320568 479.78257363 -48.3125 476.375 C-49.29863281 476.16069336 -50.28476563 475.94638672 -51.30078125 475.72558594 C-92.44383101 466.46435554 -130.42236543 447.15013436 -161.3125 418.375 C-162.70394666 417.16161781 -164.09958639 415.95302197 -165.5 414.75 C-171.99360756 409.06159978 -177.58778833 402.98521623 -182.99609375 396.25 C-184.48745378 394.3990034 -185.99911746 392.56409151 -187.53515625 390.75 C-198.24374514 378.0583391 -206.60569543 364.03942695 -214.3125 349.375 C-214.66022461 348.7243457 -215.00794922 348.07369141 -215.36621094 347.40332031 C-226.53507442 326.25330663 -233.61844915 301.92313867 -237.3125 278.375 C-237.49506348 277.21943604 -237.67762695 276.06387207 -237.86572266 274.87329102 C-239.46605387 263.60328263 -239.71166633 252.4342251 -239.6875 241.0625 C-239.68695618 240.09655914 -239.68641235 239.13061829 -239.68585205 238.13540649 C-239.64482791 222.23822306 -238.72007363 206.9554432 -235.3125 191.375 C-235.09819336 190.38886719 -234.88388672 189.40273437 -234.66308594 188.38671875 C-225.40185554 147.24366899 -206.08763436 109.26513457 -177.3125 78.375 C-176.09911781 76.98355334 -174.89052197 75.58791361 -173.6875 74.1875 C-139.73622792 35.31914714 -87.79834506 10.21606455 -37.3125 2.375 C-36.18803467 2.19839844 -35.06356934 2.02179687 -33.9050293 1.83984375 C-22.59999807 0.2374094 -11.40708054 -0.02424147 0 0 Z " fill="#8FB5F8" transform="translate(255.3125,15.625)"/>
<path d="M0 0 C0.96594086 0.00054382 1.93188171 0.00108765 2.92709351 0.00164795 C18.82427694 0.04267209 34.1070568 0.96742637 49.6875 4.375 C51.16669922 4.69645996 51.16669922 4.69645996 52.67578125 5.02441406 C101.53665776 16.02291411 149.39188546 42.47830381 181.6875 81.375 C182.46996094 82.24640625 183.25242187 83.1178125 184.05859375 84.015625 C213.00993644 116.51674278 232.16563537 159.5009304 238.6875 202.375 C238.86265137 203.49511475 239.03780273 204.61522949 239.21826172 205.76928711 C240.8222463 217.07945314 241.08675288 228.27504914 241.0625 239.6875 C241.06168427 241.13641129 241.06168427 241.13641129 241.06085205 242.61459351 C240.91942085 297.42031418 222.15513018 351.27730465 186.6875 393.375 C186.24293457 393.90834961 185.79836914 394.44169922 185.34033203 394.99121094 C176.46755486 405.62194229 167.31894347 415.5049157 156.45703125 424.1640625 C154.64230999 425.61276804 152.84694774 427.08613988 151.07421875 428.5859375 C109.76426566 463.46989788 54.93725882 480.86382648 1.375 480.75 C0.40905914 480.74945618 -0.55688171 480.74891235 -1.55209351 480.74835205 C-17.44927694 480.70732791 -32.7320568 479.78257363 -48.3125 476.375 C-49.29863281 476.16069336 -50.28476563 475.94638672 -51.30078125 475.72558594 C-92.44383101 466.46435554 -130.42236543 447.15013436 -161.3125 418.375 C-162.70394666 417.16161781 -164.09958639 415.95302197 -165.5 414.75 C-171.99360756 409.06159978 -177.58778833 402.98521623 -182.99609375 396.25 C-184.48745378 394.3990034 -185.99911746 392.56409151 -187.53515625 390.75 C-198.24374514 378.0583391 -206.60569543 364.03942695 -214.3125 349.375 C-214.66022461 348.7243457 -215.00794922 348.07369141 -215.36621094 347.40332031 C-226.53507442 326.25330663 -233.61844915 301.92313867 -237.3125 278.375 C-237.49506348 277.21943604 -237.67762695 276.06387207 -237.86572266 274.87329102 C-239.46605387 263.60328263 -239.71166633 252.4342251 -239.6875 241.0625 C-239.68695618 240.09655914 -239.68641235 239.13061829 -239.68585205 238.13540649 C-239.64482791 222.23822306 -238.72007363 206.9554432 -235.3125 191.375 C-235.09819336 190.38886719 -234.88388672 189.40273437 -234.66308594 188.38671875 C-225.40185554 147.24366899 -206.08763436 109.26513457 -177.3125 78.375 C-176.09911781 76.98355334 -174.89052197 75.58791361 -173.6875 74.1875 C-139.73622792 35.31914714 -87.79834506 10.21606455 -37.3125 2.375 C-36.18803467 2.19839844 -35.06356934 2.02179687 -33.9050293 1.83984375 C-22.59999807 0.2374094 -11.40708054 -0.02424147 0 0 Z M-141.88330078 110.79345703 C-146.34952142 115.73574902 -150.38659931 120.99870119 -154.3125 126.375 C-154.72709473 126.93993164 -155.14168945 127.50486328 -155.56884766 128.08691406 C-168.3886388 145.79987163 -177.72217418 165.58174694 -184.3125 186.375 C-184.53373535 187.05481934 -184.7549707 187.73463867 -184.98291016 188.43505859 C-191.41079519 208.70358931 -192.04971498 231.27682878 -191.3125 252.375 C-191.2815625 253.54417969 -191.250625 254.71335937 -191.21875 255.91796875 C-188.75310508 304.55281477 -163.03831256 352.09051301 -127.3125 384.375 C-122.81401013 388.2656939 -118.11425079 391.86864788 -113.3125 395.375 C-112.74756836 395.78959473 -112.18263672 396.20418945 -111.60058594 396.63134766 C-71.46128801 425.68225089 -19.70020598 438.41062656 29.36499023 430.71484375 C37.25882704 429.37005198 45.00836675 427.6483467 52.6875 425.375 C53.47560059 425.14329102 54.26370117 424.91158203 55.07568359 424.67285156 C103.32948482 410.19950528 145.13376032 377.62565744 169.2265625 333.10864258 C170.40185004 330.87439206 171.55175581 328.6295889 172.6875 326.375 C173.04150879 325.67503906 173.39551758 324.97507812 173.76025391 324.25390625 C188.36029435 294.82088243 194.12720012 263.03819642 192.6875 230.375 C192.64882813 229.46443848 192.61015625 228.55387695 192.5703125 227.61572266 C190.05982303 177.95048788 166.30353838 131.55296704 130.26904297 97.80419922 C125.3272118 93.33839501 120.06632125 89.29669215 114.6875 85.375 C114.11193359 84.95508789 113.53636719 84.53517578 112.94335938 84.10253906 C83.97200667 63.27633098 48.52455843 49.64119157 12.6875 48.375 C11.94532227 48.34776855 11.20314453 48.32053711 10.43847656 48.29248047 C-47.81528321 46.45544203 -101.93127549 68.13557158 -141.88330078 110.79345703 Z " fill="#0544B7" transform="translate(255.3125,15.625)"/>
<path d="M0 0 C1.4180545 -0.00186487 2.83610755 -0.00590327 4.25415039 -0.01194763 C8.10199319 -0.02192176 11.94909904 -0.00074583 15.79683495 0.02653241 C19.8346346 0.05040646 23.87242067 0.04741792 27.91027832 0.0478363 C34.69942638 0.05246552 41.48829421 0.07610125 48.27734375 0.11230469 C56.09854358 0.15390444 63.9194905 0.17161181 71.74079466 0.17492443 C80.09399621 0.17854318 88.44710816 0.19745826 96.80027199 0.22204471 C99.19220136 0.22823814 101.58412387 0.23189679 103.97605896 0.23507881 C107.75838389 0.24104163 111.5405334 0.25752382 115.32278442 0.28168297 C117.35151811 0.29250988 119.3802953 0.29395403 121.40905762 0.29498291 C132.37314306 0.38324629 143.30917688 1.01507022 153.36132812 5.72436523 C154.36679687 6.18178101 154.36679687 6.18178101 155.39257812 6.6484375 C161.57439976 9.56689089 167.00926288 13.18635114 172.23632812 17.59936523 C173.29207031 18.48688477 173.29207031 18.48688477 174.36914062 19.39233398 C197.82496388 40.96249302 203.90068639 76.40653303 205.23632812 106.59936523 C205.41170813 112.22340732 205.43310145 117.84799589 205.42382812 123.47436523 C205.42289154 124.21737885 205.42195496 124.96039246 205.42098999 125.72592163 C205.33206294 158.37616867 199.64116609 193.3324322 177.23632812 218.59936523 C176.68332031 219.23487305 176.1303125 219.87038086 175.56054688 220.52514648 C163.44581347 233.56511013 146.15385546 239.8523415 128.73153496 240.78748512 C124.96028196 240.86406029 121.19365317 240.88114505 117.42163086 240.87402344 C115.98779539 240.87838311 114.55396224 240.88357038 113.12013245 240.88951111 C109.26949 240.90276385 105.41894647 240.90349632 101.5682857 240.90094781 C98.34453178 240.89987071 95.12079729 240.90477915 91.89704758 240.90955323 C84.29715397 240.92059641 76.69730983 240.92111236 69.09741211 240.91503906 C61.26334933 240.90897528 53.42946505 240.92138276 45.5954327 240.94260913 C38.85120325 240.96020889 32.10703077 240.96622988 25.3627792 240.96297139 C21.3419714 240.96115901 17.3212916 240.96379202 13.30050468 240.97768593 C9.52875997 240.9902366 5.75729593 240.98834672 1.98555565 240.97527504 C0.60203711 240.97290532 -0.78150107 240.97565812 -2.1649971 240.98389816 C-4.05244164 240.99433065 -5.93996591 240.98448182 -7.82740784 240.97358704 C-9.41153142 240.97383865 -9.41153142 240.97383865 -11.02765751 240.97409534 C-14.1659742 240.54426509 -15.52017789 239.80655397 -17.76367188 237.59936523 C-18.98768573 233.92732368 -18.89537549 230.55376008 -18.87719727 226.73144531 C-18.87734329 225.93121445 -18.87748932 225.13098358 -18.87763977 224.3065033 C-18.87694292 221.66060682 -18.86916116 219.01478067 -18.86132812 216.36889648 C-18.85946314 214.53472431 -18.85803961 212.70055164 -18.85704041 210.86637878 C-18.8532216 206.03800075 -18.84339672 201.20965278 -18.83233643 196.38128662 C-18.82210864 191.45463467 -18.81753985 186.52797787 -18.8125 181.60131836 C-18.8017739 171.93398744 -18.78470509 162.26667884 -18.76367188 152.59936523 C-19.95911621 152.62293091 -19.95911621 152.62293091 -21.17871094 152.64697266 C-24.79029238 152.70934112 -28.40176049 152.74836263 -32.01367188 152.78686523 C-33.26792969 152.81200195 -34.5221875 152.83713867 -35.81445312 152.86303711 C-37.62236328 152.87753906 -37.62236328 152.87753906 -39.46679688 152.89233398 C-41.13210449 152.91589966 -41.13210449 152.91589966 -42.83105469 152.93994141 C-46.11368103 152.55871732 -47.44565186 151.91772434 -49.76367188 149.59936523 C-50.75617024 146.62187014 -50.91303544 144.58462589 -50.95654297 141.47290039 C-50.98063736 139.90579819 -50.98063736 139.90579819 -51.00521851 138.30703735 C-51.0496953 133.5392526 -51.09071492 128.77160568 -51.11376953 124.00366211 C-51.13034812 121.48761762 -51.15766269 118.97162059 -51.19580078 116.45581055 C-51.25049404 112.82893433 -51.27243109 109.20316048 -51.28710938 105.57592773 C-51.30977875 104.45183502 -51.33244812 103.32774231 -51.35580444 102.16958618 C-51.34344837 97.61290307 -51.20501117 94.45299986 -49.09423828 90.37036133 C-43.60988237 87.45410874 -38.04619146 88.08191114 -31.95117188 88.28686523 C-30.68595703 88.30942383 -29.42074219 88.33198242 -28.1171875 88.35522461 C-24.99814569 88.41407445 -21.88151285 88.49625154 -18.76367188 88.59936523 C-18.77477493 87.57063797 -18.78587799 86.54191071 -18.7973175 85.48200989 C-18.89868986 75.78572651 -18.97363548 66.08955068 -19.02273273 56.39285755 C-19.04882294 51.40767641 -19.08421055 46.42292316 -19.14086914 41.43798828 C-19.19520936 36.62690211 -19.22509675 31.8162274 -19.23805809 27.00485802 C-19.24729436 25.16959849 -19.26533096 23.3343614 -19.29232216 21.49927711 C-19.3286401 18.92773465 -19.33361622 16.35789061 -19.33129883 13.78613281 C-19.34927521 13.02799789 -19.36725159 12.26986298 -19.38577271 11.48875427 C-19.35153044 7.97527173 -18.81619515 5.6926144 -17.08842468 2.62515259 C-11.71403512 -0.64948798 -6.14056599 -0.07077271 0 0 Z " fill="#1F6CF2" transform="translate(178.763671875,135.400634765625)"/>
<path d="M0 0 C0.91607529 -0.00554901 1.83215057 -0.01109802 2.77598572 -0.01681519 C5.79992221 -0.02861169 8.82235999 -0.0043322 11.84619141 0.02148438 C13.95219861 0.02319583 16.05820794 0.02312944 18.16421509 0.0213623 C22.57762034 0.02301567 26.99051774 0.04171421 31.40380859 0.07324219 C37.05189355 0.11287074 42.69931184 0.11729304 48.34750938 0.10977936 C52.69707307 0.10670434 57.04648782 0.11884998 61.39601517 0.13591003 C63.47795298 0.14292641 65.55990768 0.14606622 67.64185715 0.1452179 C70.55711894 0.14702257 73.47159366 0.16846352 76.38671875 0.1953125 C77.24201675 0.1923819 78.09731476 0.18945129 78.97853088 0.18643188 C86.88109866 0.29830399 92.89758654 2.75569352 98.76806641 8.14648438 C105.80754808 16.60456882 110.06643382 27.86602726 111.82275391 38.61523438 C112.02513672 39.80890625 112.22751953 41.00257813 112.43603516 42.23242188 C116.58538289 70.29691465 118.05024205 110.10263312 100.88525391 134.05273438 C96.62337452 139.29560902 92.50205697 142.8759507 85.82275391 144.61523438 C82.7081071 144.89619985 79.61014117 144.89889217 76.484375 144.88989258 C75.56333481 144.89500351 74.64229462 144.90011444 73.69334412 144.90538025 C70.66089309 144.91923635 67.62867024 144.91832305 64.59619141 144.91601562 C62.48442501 144.91990356 60.37265938 144.92423844 58.26089478 144.92900085 C53.84105896 144.93645362 49.42130306 144.93617774 45.00146484 144.9309082 C39.3341141 144.92510222 33.66708897 144.94207646 27.9997921 144.96525288 C23.64181605 144.97997021 19.28391889 144.98086486 14.92592239 144.97774315 C12.83590676 144.97825695 10.74588677 144.98350572 8.65589523 144.99355507 C5.73782762 145.00586889 2.82040083 144.99915911 -0.09765625 144.98754883 C-0.96216904 144.99519257 -1.82668182 145.0028363 -2.71739197 145.01071167 C-6.22581367 144.97980232 -8.55071023 144.94933264 -11.68222046 143.27946472 C-14.18127187 140.4975745 -14.31097698 137.7993901 -14.37011719 134.22314453 C-14.38618011 133.33857574 -14.40224304 132.45400696 -14.41879272 131.54263306 C-14.4633446 127.50759765 -14.50428889 123.4727238 -14.52734375 119.4375 C-14.54391829 117.30945918 -14.57122785 115.18147437 -14.609375 113.05371094 C-14.66412804 109.98277971 -14.68601337 106.91315037 -14.70068359 103.84179688 C-14.72335297 102.8926944 -14.74602234 101.94359192 -14.76937866 100.96572876 C-14.75557162 96.6498807 -14.56249439 94.24083909 -12.26293945 90.5065918 C-7.88258312 87.8216784 -4.32455185 87.98471808 0.71728516 88.12695312 C2.13831795 88.13756523 2.13831795 88.13756523 3.58805847 88.14839172 C6.60460412 88.17631104 9.6192723 88.23904523 12.63525391 88.30273438 C14.68405517 88.32782042 16.73288561 88.35063305 18.78173828 88.37109375 C23.79670977 88.42187313 28.80763857 88.51972858 33.82275391 88.61523438 C33.82275391 78.05523437 33.82275391 67.49523437 33.82275391 56.61523438 C29.23626953 56.66744141 29.23626953 56.66744141 24.55712891 56.72070312 C21.59506158 56.74410073 18.63300456 56.76231618 15.67089844 56.7800293 C13.61258332 56.79511388 11.55430033 56.81558425 9.49609375 56.84155273 C6.53719147 56.87795023 3.57871423 56.89496404 0.61962891 56.90820312 C-0.76026215 56.93142891 -0.76026215 56.93142891 -2.16802979 56.9551239 C-8.52281915 56.95679711 -8.52281915 56.95679711 -11.72705078 55.28442383 C-14.16503799 52.47827592 -14.31122564 49.7843538 -14.37011719 46.22314453 C-14.38618011 45.33857574 -14.40224304 44.45400696 -14.41879272 43.54263306 C-14.4633446 39.50759765 -14.50428889 35.4727238 -14.52734375 31.4375 C-14.54391829 29.30945918 -14.57122785 27.18147437 -14.609375 25.05371094 C-14.66412804 21.98277971 -14.68601337 18.91315037 -14.70068359 15.84179688 C-14.72335297 14.8926944 -14.74602234 13.94359192 -14.76937866 12.96572876 C-14.76652863 12.07485565 -14.76367859 11.18398254 -14.76074219 10.26611328 C-14.76882904 9.48684479 -14.77691589 8.70757629 -14.7852478 7.9046936 C-12.72987152 0.16507687 -6.73958564 -0.10401948 0 0 Z " fill="#0444B7" transform="translate(222.17724609375,183.384765625)"/>
<path d="M0 0 C1.4180545 -0.00186487 2.83610755 -0.00590327 4.25415039 -0.01194763 C8.10199319 -0.02192176 11.94909904 -0.00074583 15.79683495 0.02653241 C19.8346346 0.05040646 23.87242067 0.04741792 27.91027832 0.0478363 C34.69942638 0.05246552 41.48829421 0.07610125 48.27734375 0.11230469 C56.09854358 0.15390444 63.9194905 0.17161181 71.74079466 0.17492443 C80.09399621 0.17854318 88.44710816 0.19745826 96.80027199 0.22204471 C99.19220136 0.22823814 101.58412387 0.23189679 103.97605896 0.23507881 C107.75838389 0.24104163 111.5405334 0.25752382 115.32278442 0.28168297 C117.35151811 0.29250988 119.3802953 0.29395403 121.40905762 0.29498291 C132.37314306 0.38324629 143.30917688 1.01507022 153.36132812 5.72436523 C154.36679687 6.18178101 154.36679687 6.18178101 155.39257812 6.6484375 C161.57439976 9.56689089 167.00926288 13.18635114 172.23632812 17.59936523 C173.29207031 18.48688477 173.29207031 18.48688477 174.36914062 19.39233398 C197.82496388 40.96249302 203.90068639 76.40653303 205.23632812 106.59936523 C205.41170813 112.22340732 205.43310145 117.84799589 205.42382812 123.47436523 C205.42289154 124.21737885 205.42195496 124.96039246 205.42098999 125.72592163 C205.33206294 158.37616867 199.64116609 193.3324322 177.23632812 218.59936523 C176.68332031 219.23487305 176.1303125 219.87038086 175.56054688 220.52514648 C163.44581347 233.56511013 146.15385546 239.8523415 128.73153496 240.78748512 C124.96028196 240.86406029 121.19365317 240.88114505 117.42163086 240.87402344 C115.98779539 240.87838311 114.55396224 240.88357038 113.12013245 240.88951111 C109.26949 240.90276385 105.41894647 240.90349632 101.5682857 240.90094781 C98.34453178 240.89987071 95.12079729 240.90477915 91.89704758 240.90955323 C84.29715397 240.92059641 76.69730983 240.92111236 69.09741211 240.91503906 C61.26334933 240.90897528 53.42946505 240.92138276 45.5954327 240.94260913 C38.85120325 240.96020889 32.10703077 240.96622988 25.3627792 240.96297139 C21.3419714 240.96115901 17.3212916 240.96379202 13.30050468 240.97768593 C9.52875997 240.9902366 5.75729593 240.98834672 1.98555565 240.97527504 C0.60203711 240.97290532 -0.78150107 240.97565812 -2.1649971 240.98389816 C-4.05244164 240.99433065 -5.93996591 240.98448182 -7.82740784 240.97358704 C-9.41153142 240.97383865 -9.41153142 240.97383865 -11.02765751 240.97409534 C-14.1659742 240.54426509 -15.52017789 239.80655397 -17.76367188 237.59936523 C-18.98768573 233.92732368 -18.89537549 230.55376008 -18.87719727 226.73144531 C-18.87734329 225.93121445 -18.87748932 225.13098358 -18.87763977 224.3065033 C-18.87694292 221.66060682 -18.86916116 219.01478067 -18.86132812 216.36889648 C-18.85946314 214.53472431 -18.85803961 212.70055164 -18.85704041 210.86637878 C-18.8532216 206.03800075 -18.84339672 201.20965278 -18.83233643 196.38128662 C-18.82210864 191.45463467 -18.81753985 186.52797787 -18.8125 181.60131836 C-18.8017739 171.93398744 -18.78470509 162.26667884 -18.76367188 152.59936523 C-19.95911621 152.62293091 -19.95911621 152.62293091 -21.17871094 152.64697266 C-24.79029238 152.70934112 -28.40176049 152.74836263 -32.01367188 152.78686523 C-33.26792969 152.81200195 -34.5221875 152.83713867 -35.81445312 152.86303711 C-37.62236328 152.87753906 -37.62236328 152.87753906 -39.46679688 152.89233398 C-41.13210449 152.91589966 -41.13210449 152.91589966 -42.83105469 152.93994141 C-46.11368103 152.55871732 -47.44565186 151.91772434 -49.76367188 149.59936523 C-50.75617024 146.62187014 -50.91303544 144.58462589 -50.95654297 141.47290039 C-50.98063736 139.90579819 -50.98063736 139.90579819 -51.00521851 138.30703735 C-51.0496953 133.5392526 -51.09071492 128.77160568 -51.11376953 124.00366211 C-51.13034812 121.48761762 -51.15766269 118.97162059 -51.19580078 116.45581055 C-51.25049404 112.82893433 -51.27243109 109.20316048 -51.28710938 105.57592773 C-51.30977875 104.45183502 -51.33244812 103.32774231 -51.35580444 102.16958618 C-51.34344837 97.61290307 -51.20501117 94.45299986 -49.09423828 90.37036133 C-43.60988237 87.45410874 -38.04619146 88.08191114 -31.95117188 88.28686523 C-30.68595703 88.30942383 -29.42074219 88.33198242 -28.1171875 88.35522461 C-24.99814569 88.41407445 -21.88151285 88.49625154 -18.76367188 88.59936523 C-18.77477493 87.57063797 -18.78587799 86.54191071 -18.7973175 85.48200989 C-18.89868986 75.78572651 -18.97363548 66.08955068 -19.02273273 56.39285755 C-19.04882294 51.40767641 -19.08421055 46.42292316 -19.14086914 41.43798828 C-19.19520936 36.62690211 -19.22509675 31.8162274 -19.23805809 27.00485802 C-19.24729436 25.16959849 -19.26533096 23.3343614 -19.29232216 21.49927711 C-19.3286401 18.92773465 -19.33361622 16.35789061 -19.33129883 13.78613281 C-19.34927521 13.02799789 -19.36725159 12.26986298 -19.38577271 11.48875427 C-19.35153044 7.97527173 -18.81619515 5.6926144 -17.08842468 2.62515259 C-11.71403512 -0.64948798 -6.14056599 -0.07077271 0 0 Z M-2.76367188 16.59936523 C-2.77175873 17.61778503 -2.77984558 18.63620483 -2.78817749 19.68548584 C-2.86563447 29.27927756 -2.95337268 38.87292738 -3.05119896 48.46653366 C-3.1011624 53.39880303 -3.14749251 58.33105097 -3.18554688 63.26342773 C-3.22239898 68.0227065 -3.26875884 72.78180606 -3.32173538 77.5409317 C-3.34027971 79.35738229 -3.35538753 81.1738713 -3.36701584 82.99037933 C-3.3838776 85.53307987 -3.41291238 88.07536995 -3.44482422 90.61791992 C-3.44698441 91.37029938 -3.44914459 92.12267883 -3.45137024 92.89785767 C-3.5597191 99.64774255 -3.5597191 99.64774255 -5.76367188 102.59936523 C-8.93877169 103.65773184 -11.40649571 103.80180312 -14.74414062 103.91577148 C-15.79239014 103.95387939 -16.84063965 103.9919873 -17.9206543 104.03125 C-19.9157605 104.09590454 -19.9157605 104.09590454 -21.95117188 104.16186523 C-26.17929688 104.30624023 -30.40742188 104.45061523 -34.76367188 104.59936523 C-34.76367188 115.15936523 -34.76367188 125.71936523 -34.76367188 136.59936523 C-26.38748968 136.84862913 -26.38748968 136.84862913 -18.01074219 137.07739258 C-16.96499023 137.11300293 -15.91923828 137.14861328 -14.84179688 137.18530273 C-13.23933105 137.23243408 -13.23933105 137.23243408 -11.60449219 137.28051758 C-8.8052113 137.59470294 -7.10778539 138.06814077 -4.76367188 139.59936523 C-3.2069797 142.71274958 -3.5839451 146.02603894 -3.55834961 149.44555664 C-3.54845001 150.25539505 -3.53855042 151.06523346 -3.52835083 151.89961243 C-3.49669788 154.58335419 -3.47196344 157.26711368 -3.44726562 159.95092773 C-3.42669937 161.80895454 -3.40570299 163.66697663 -3.3842926 165.5249939 C-3.32903797 170.42073759 -3.27964367 175.31652374 -3.23144531 180.21234131 C-3.18125503 185.20597116 -3.12555607 190.19953918 -3.0703125 195.19311523 C-2.96268946 204.99514578 -2.8612537 214.79722995 -2.76367188 224.59936523 C14.761256 224.66961723 32.28613958 224.72243242 49.8111763 224.75480175 C57.94936089 224.77023455 66.08745771 224.79125498 74.22558594 224.82568359 C81.32331936 224.85569633 88.42098917 224.87496628 95.51878428 224.88163072 C99.27291033 224.88552299 103.0268545 224.89459438 106.78092194 224.9165554 C110.32349472 224.93710883 113.86581288 224.94316154 117.40843964 224.93868828 C119.30984264 224.93989093 121.21121872 224.95593345 123.11254883 224.97262573 C139.22187747 224.91539489 152.16556598 220.23065291 163.89257812 209.06030273 C176.70395815 195.6083537 183.21392122 177.77789122 186.36132812 159.72436523 C186.53019531 158.8078418 186.6990625 157.89131836 186.87304688 156.94702148 C189.05642629 144.72353513 189.47542965 132.6122414 189.48632812 120.22436523 C189.48733521 119.42767426 189.48834229 118.63098328 189.48937988 117.81015015 C189.47859934 105.17234145 188.76004479 93.01198693 186.23632812 80.59936523 C186.10242676 79.8684668 185.96852539 79.13756836 185.83056641 78.38452148 C182.88889213 62.3818134 176.88161476 47.08004611 166.23632812 34.59936523 C165.39134766 33.60549805 165.39134766 33.60549805 164.52929688 32.59155273 C155.97920012 23.34062837 143.70384247 17.61393091 131.23632812 16.59936523 C126.83293019 16.46233366 122.43255857 16.47290283 118.02734375 16.48583984 C116.71919708 16.48569382 115.41105042 16.48554779 114.06326294 16.48539734 C110.49772074 16.48511188 106.93221257 16.49096781 103.36667824 16.4979713 C99.63243408 16.50424684 95.89818904 16.50481195 92.16394043 16.5059967 C85.1022555 16.50909767 78.04058615 16.51729435 70.97890806 16.52734619 C62.93534691 16.53854575 54.89178498 16.54402745 46.84821796 16.54904163 C30.31091224 16.55947805 13.77362218 16.57705349 -2.76367188 16.59936523 Z " fill="#0444B7" transform="translate(178.763671875,135.400634765625)"/>
<path d="M0 0 C10.58780524 -0.15825016 21.17482308 -0.28662779 31.76354408 -0.3626852 C36.6805381 -0.39919224 41.59668001 -0.44869534 46.51318359 -0.52807617 C51.25947799 -0.60422782 56.00495375 -0.64600932 60.75181198 -0.6641407 C62.56119041 -0.67705855 64.37052484 -0.70228554 66.17955399 -0.7401104 C68.71784906 -0.79106464 71.25277833 -0.79791884 73.79150391 -0.79467773 C74.53669281 -0.81984467 75.28188171 -0.8450116 76.0496521 -0.87094116 C79.15331547 -0.82816674 81.40380261 -0.51066874 83.79308701 1.53585625 C96.2937847 15.89858676 96.23398607 36.81859164 96.25 54.875 C96.25100708 55.6586795 96.25201416 56.44235901 96.25305176 57.24978638 C96.23815808 74.35451443 96.16821749 94.94966187 85 109 C84.62731491 109.53824905 84.25462982 110.07649811 83.87065125 110.63105774 C80.897626 112.80671711 77.67468915 112.39112015 74.13208008 112.34057617 C73.33184921 112.34101425 72.53161835 112.34145233 71.70713806 112.34190369 C69.06102128 112.33981297 66.4155374 112.31646894 63.76953125 112.29296875 C61.93536221 112.28737379 60.10118868 112.28310322 58.26701355 112.28010559 C53.43852367 112.26864891 48.61030434 112.23917465 43.78192139 112.20599365 C38.85530253 112.17531051 33.92863998 112.16160401 29.00195312 112.14648438 C19.3344974 112.11430567 9.66731352 112.06153103 0 112 C0 104.08 0 96.16 0 88 C2.98546875 87.95101562 5.9709375 87.90203125 9.046875 87.8515625 C11.93950396 87.79754689 14.83205033 87.74024165 17.72460938 87.68261719 C19.73431238 87.64434331 21.74408351 87.60948764 23.75390625 87.578125 C26.6434768 87.53244009 29.53257896 87.47445113 32.421875 87.4140625 C33.31992859 87.40251129 34.21798218 87.39096008 35.14324951 87.37905884 C36.4041037 87.3492543 36.4041037 87.3492543 37.69042969 87.31884766 C38.42767273 87.30552399 39.16491577 87.29220032 39.92449951 87.2784729 C42.35208845 86.95275978 43.94797846 86.33612941 46 85 C47.00130279 81.99609163 47.13233868 79.98108328 47.14526367 76.84179688 C47.15164352 75.79060669 47.15802338 74.7394165 47.16459656 73.65637207 C47.16570938 72.52195679 47.1668222 71.3875415 47.16796875 70.21875 C47.17129715 69.05371948 47.17462555 67.88868896 47.17805481 66.68835449 C47.18312018 64.22371821 47.18546326 61.75907507 47.18530273 59.29443359 C47.18749121 55.51518531 47.20565678 51.73622794 47.22460938 47.95703125 C47.22754291 45.56510517 47.22952797 43.1731777 47.23046875 40.78125 C47.23765427 39.64683472 47.24483978 38.51241943 47.25224304 37.34362793 C47.2476281 35.76684265 47.2476281 35.76684265 47.24291992 34.15820312 C47.24434494 33.23237427 47.24576996 32.30654541 47.24723816 31.35266113 C47.1558967 28.73041773 47.1558967 28.73041773 45 26 C42.29051025 25.09683675 40.59864666 24.853425 37.80395508 24.79467773 C36.96331009 24.77473251 36.1226651 24.75478729 35.25654602 24.73423767 C34.35333115 24.71752518 33.45011627 24.70081268 32.51953125 24.68359375 C31.59154221 24.66281265 30.66355316 24.64203156 29.70744324 24.62062073 C26.7425376 24.55522677 23.77754328 24.49628738 20.8125 24.4375 C18.8027252 24.39430513 16.79295937 24.35069053 14.78320312 24.30664062 C9.85555833 24.19876571 4.92784639 24.09961668 0 24 C0 16.08 0 8.16 0 0 Z " fill="#8FB5F8" transform="translate(224,200)"/>
<path d="M0 0 C0.50636607 1.74816858 1.00484619 3.49862263 1.5 5.25 C1.7784375 6.22453125 2.056875 7.1990625 2.34375 8.203125 C3 11 3 11 3 15 C2.44014404 15.08564209 1.88028809 15.17128418 1.3034668 15.25952148 C-1.23561208 15.64948061 -3.77405368 16.04344516 -6.3125 16.4375 C-7.19357422 16.57220703 -8.07464844 16.70691406 -8.98242188 16.84570312 C-9.82998047 16.97783203 -10.67753906 17.10996094 -11.55078125 17.24609375 C-12.33106689 17.36654053 -13.11135254 17.4869873 -13.9152832 17.61108398 C-16.18279797 17.98488611 -16.18279797 17.98488611 -19 19 C-20.55266653 19.1464714 -22.10995662 19.24694074 -23.66796875 19.31640625 C-24.56064453 19.35830078 -25.45332031 19.40019531 -26.37304688 19.44335938 C-27.30181641 19.48267578 -28.23058594 19.52199219 -29.1875 19.5625 C-30.12787109 19.60568359 -31.06824219 19.64886719 -32.03710938 19.69335938 C-34.35790188 19.79938543 -36.67893177 19.90019194 -39 20 C-39 14.39 -39 8.78 -39 3 C-35.0709375 2.8453125 -35.0709375 2.8453125 -31.0625 2.6875 C-23.73166434 2.34465952 -16.66784046 1.42705375 -9.48461914 -0.0715332 C-6.03815982 -0.76669138 -3.34333169 -1.2858968 0 0 Z " fill="#6195F4" transform="translate(303,460)"/>
<path d="M0 0 C1.0010376 0.14493896 2.0020752 0.28987793 3.03344727 0.43920898 C6.83987339 0.98277941 10.6511947 1.48210388 14.46484375 1.97265625 C15.14301651 2.06002548 15.82118927 2.14739471 16.51991272 2.2374115 C18.65905058 2.51289308 20.79827343 2.78770818 22.9375 3.0625 C24.39909424 3.25060674 25.86068284 3.43875738 27.32226562 3.62695312 C30.88143517 4.08522396 34.44071919 4.54259093 38 5 C38 10.28 38 15.56 38 21 C9.61519608 19.46568627 9.61519608 19.46568627 -4 16 C-3.47606294 10.13190493 -2.23891142 5.45126259 0 0 Z " fill="#6195F4" transform="translate(210,459)"/>
<path d="M0 0 C0 5.28 0 10.56 0 16 C-2.15660156 16.27714844 -4.31320313 16.55429687 -6.53515625 16.83984375 C-8.64348835 17.11113005 -10.75179886 17.38258354 -12.86010742 17.65405273 C-14.31581414 17.84140175 -15.77154293 18.02857927 -17.22729492 18.21557617 C-19.32997493 18.48570464 -21.43257251 18.75646716 -23.53515625 19.02734375 C-25.42826538 19.27085571 -25.42826538 19.27085571 -27.35961914 19.51928711 C-30.91058493 19.98819273 -34.45523493 20.48675796 -38 21 C-38.67184618 18.89748139 -39.33730968 16.79292237 -40 14.6875 C-40.556875 12.92986328 -40.556875 12.92986328 -41.125 11.13671875 C-42 8 -42 8 -42 5 C-12.64713633 -0.38914266 -12.64713633 -0.38914266 0 0 Z " fill="#6195F4" transform="translate(248,32)"/>
<path d="M0 0 C0.63389648 0.28198242 1.26779297 0.56396484 1.92089844 0.85449219 C18.17015154 8.18775982 18.17015154 8.18775982 35 14 C34.52013969 19.56890517 33.70084819 24.67067568 32 30 C24.50692597 28.60775869 17.87362637 26.10702341 10.875 23.125 C9.82957031 22.69058594 8.78414062 22.25617188 7.70703125 21.80859375 C2.2456102 19.50941144 -2.93798193 17.08309883 -8 14 C-7.23432134 12.41416752 -6.46222035 10.83143506 -5.6875 9.25 C-5.25824219 8.36828125 -4.82898438 7.4865625 -4.38671875 6.578125 C-3.09644586 4.1793078 -1.65529394 2.15368353 0 0 Z " fill="#6195F4" transform="translate(159,440)"/>
<path d="M0 0 C0.50806447 1.72681437 1.00610467 3.45657979 1.5 5.1875 C1.7784375 6.15042969 2.056875 7.11335938 2.34375 8.10546875 C2.96677608 10.85345876 3.12302812 13.19598416 3 16 C1.98164063 16.3403125 0.96328125 16.680625 -0.0859375 17.03125 C-11.02042142 20.7530171 -21.51290762 25.16735158 -32 30 C-34.64 25.71 -37.28 21.42 -40 17 C-37.36835396 14.36835396 -36.05888338 13.36804407 -32.82421875 11.9140625 C-32.00236084 11.54273193 -31.18050293 11.17140137 -30.33374023 10.78881836 C-29.02385132 10.21272827 -29.02385132 10.21272827 -27.6875 9.625 C-26.79554932 9.22869385 -25.90359863 8.8323877 -24.98461914 8.42407227 C-5.79482719 0 -5.79482719 0 0 0 Z " fill="#6195F4" transform="translate(191,42)"/>
<path d="M0 0 C3.09718696 2.83247013 4.95667709 5.46409609 6.75 9.25 C7.17796875 10.14203125 7.6059375 11.0340625 8.046875 11.953125 C8.36140625 12.62859375 8.6759375 13.3040625 9 14 C0.0981584 18.73421844 -8.8860165 22.90647416 -18.3125 26.5 C-19.22539795 26.84998047 -20.1382959 27.19996094 -21.07885742 27.56054688 C-27.60513078 30 -27.60513078 30 -31 30 C-31.50588147 28.08487728 -32.00448391 26.16783078 -32.5 24.25 C-32.7784375 23.18265625 -33.056875 22.1153125 -33.34375 21.015625 C-34 18 -34 18 -34 14 C-33.43192627 13.78907715 -32.86385254 13.5781543 -32.27856445 13.36083984 C-21.32552987 9.27988508 -10.50594572 5.14576933 0 0 Z " fill="#6196F4" transform="translate(352,440)"/>
<path d="M0 0 C0.21092285 0.56283691 0.4218457 1.12567383 0.63916016 1.70556641 C4.85132081 12.92047272 9.17895947 24.03213279 14 35 C9.71 37.64 5.42 40.28 1 43 C-1.51000065 40.48999935 -2.4785847 39.39974519 -3.83203125 36.3671875 C-4.15300781 35.65111328 -4.47398438 34.93503906 -4.8046875 34.19726562 C-5.13726562 33.43091797 -5.46984375 32.66457031 -5.8125 31.875 C-6.15925781 31.08544922 -6.50601563 30.29589844 -6.86328125 29.48242188 C-16 8.33696433 -16 8.33696433 -16 3 C-14.27318563 2.49193553 -12.54342021 1.99389533 -10.8125 1.5 C-9.84957031 1.2215625 -8.88664062 0.943125 -7.89453125 0.65625 C-5.13439851 0.03047092 -2.81289292 -0.04974903 0 0 Z " fill="#6196F4" transform="translate(58,318)"/>
<path d="M0 0 C2.63164604 2.63164604 3.63195593 3.94111662 5.0859375 7.17578125 C5.45726807 7.99763916 5.82859863 8.81949707 6.21118164 9.66625977 C6.5952417 10.53951904 6.97930176 11.41277832 7.375 12.3125 C7.77130615 13.20445068 8.1676123 14.09640137 8.57592773 15.01538086 C17 34.20517281 17 34.20517281 17 40 C15.08487728 40.50588147 13.16783078 41.00448391 11.25 41.5 C10.18265625 41.7784375 9.1153125 42.056875 8.015625 42.34375 C5 43 5 43 1 43 C0.6596875 41.98164063 0.319375 40.96328125 -0.03125 39.9140625 C-3.7530171 28.97957858 -8.16735158 18.48709238 -13 8 C-8.71 5.36 -4.42 2.72 0 0 Z " fill="#6196F4" transform="translate(453,151)"/>
<path d="M0 0 C7.30200302 1.60778048 14.19199733 4.12336029 21.125 6.875 C21.9593457 7.20242187 22.79369141 7.52984375 23.65332031 7.8671875 C29.36041797 10.16890786 34.68989424 12.89324436 40 16 C39.06915029 17.77433812 38.13005387 19.54435149 37.1875 21.3125 C36.66542969 22.29863281 36.14335937 23.28476563 35.60546875 24.30078125 C34.20990769 26.6470895 32.94741218 28.14769952 31 30 C30.46745605 29.75354736 29.93491211 29.50709473 29.38623047 29.25317383 C18.73544738 24.34262879 8.14673263 19.67251621 -3 16 C-2.52013969 10.43109483 -1.70084819 5.32932432 0 0 Z " fill="#6196F4" transform="translate(321,42)"/>
<path d="M0 0 C5.56890517 0.47986031 10.67067568 1.29915181 16 3 C15.23719915 7.8181978 13.61157925 12.25179246 11.9375 16.8125 C11.63384521 17.64112549 11.33019043 18.46975098 11.01733398 19.32348633 C7.93266662 27.52449266 4.1052221 35.26938696 0 43 C-1.77433812 42.06915029 -3.54435149 41.13005387 -5.3125 40.1875 C-6.29863281 39.66542969 -7.28476562 39.14335937 -8.30078125 38.60546875 C-10.6470895 37.20990769 -12.14769952 35.94741218 -14 34 C-13.75354736 33.46745605 -13.50709473 32.93491211 -13.25317383 32.38623047 C-8.34262879 21.73544738 -3.67251621 11.14673263 0 0 Z " fill="#6196F4" transform="translate(454,318)"/>
<path d="M0 0 C1.77433812 0.93084971 3.54435149 1.86994613 5.3125 2.8125 C6.29863281 3.33457031 7.28476563 3.85664063 8.30078125 4.39453125 C10.61665068 5.7719876 12.23611001 6.99530591 14 9 C13.49210937 10.02996094 12.98421875 11.05992187 12.4609375 12.12109375 C7.56260943 22.20539537 3.51626934 32.35795758 0 43 C-4.0217445 42.45359408 -7.98232052 41.85023373 -11.9375 40.9375 C-12.70964844 40.76089844 -13.48179688 40.58429688 -14.27734375 40.40234375 C-14.84582031 40.26957031 -15.41429687 40.13679688 -16 40 C-13.49261224 25.70788979 -6.61056612 12.76812389 0 0 Z " fill="#6196F4" transform="translate(58,151)"/>
<path d="M0 0 C5.61 0 11.22 0 17 0 C17.103125 2.371875 17.20625 4.74375 17.3125 7.1875 C17.8471224 17.55047147 19.39664497 27.75692941 21 38 C18.89748139 38.67184618 16.79292237 39.33730968 14.6875 40 C13.51574219 40.37125 12.34398437 40.7425 11.13671875 41.125 C8 42 8 42 5 42 C0.59938838 13.93577982 0.59938838 13.93577982 0 0 Z " fill="#6196F4" transform="translate(32,264)"/>
<path d="M0 0 C1.67937911 8.84472996 3.18559556 17.67527792 4.1875 26.625 C4.27112793 27.3576709 4.35475586 28.0903418 4.44091797 28.84521484 C4.91650629 33.30960841 5 37.44549584 5 42 C-0.28 42 -5.56 42 -11 42 C-11.27714844 39.84339844 -11.55429687 37.68679687 -11.83984375 35.46484375 C-12.11113005 33.35651165 -12.38258354 31.24820114 -12.65405273 29.13989258 C-12.84140175 27.68418586 -13.02857927 26.22845707 -13.21557617 24.77270508 C-13.48570464 22.67002507 -13.75646716 20.56742749 -14.02734375 18.46484375 C-14.18968506 17.202771 -14.35202637 15.94069824 -14.51928711 14.64038086 C-14.98819273 11.08941507 -15.48675796 7.54476507 -16 4 C-14.75108386 3.51801537 -13.50081192 3.03954323 -12.25 2.5625 C-11.55390625 2.29566406 -10.8578125 2.02882812 -10.140625 1.75390625 C-6.52386334 0.48011975 -3.89719464 0 0 0 Z " fill="#6196F4" transform="translate(475,206)"/>
<path d="M0 0 C5.46864457 1.01591421 10.76390013 2.07091057 16 4 C15.85506104 5.0010376 15.71012207 6.0020752 15.56079102 7.03344727 C15.01722059 10.83987339 14.51789612 14.6511947 14.02734375 18.46484375 C13.93997452 19.14301651 13.85260529 19.82118927 13.7625885 20.51991272 C13.48710692 22.65905058 13.21229182 24.79827343 12.9375 26.9375 C12.74939326 28.39909424 12.56124262 29.86068284 12.37304688 31.32226562 C11.91477604 34.88143517 11.45740907 38.44071919 11 42 C5.72 42 0.44 42 -5 42 C-3.27173913 12.61956522 -3.27173913 12.61956522 0 0 Z " fill="#6196F4" transform="translate(37,206)"/>
<path d="M0 0 C14.12699944 1.07501786 28.04167397 2.55688576 42 5 C41.71342606 6.54262145 41.42046123 8.08405606 41.125 9.625 C40.96257812 10.48351563 40.80015625 11.34203125 40.6328125 12.2265625 C39.94708729 15.2319014 39.01513455 18.09108503 38 21 C37.45287354 20.91435791 36.90574707 20.82871582 36.34204102 20.74047852 C24.2060678 18.8637555 12.27114268 17.53352794 0 17 C0 11.39 0 5.78 0 0 Z " fill="#6196F4" transform="translate(264,32)"/>
<path d="M0 0 C3.45201639 1.47721422 5.64961936 3.43794001 8.25 6.125 C8.95640625 6.84945313 9.6628125 7.57390625 10.390625 8.3203125 C10.92171875 8.87460937 11.4528125 9.42890625 12 10 C7.72543799 20.55651503 -9.71343678 29.80895786 -19 36 C-20.984375 35.96484375 -20.984375 35.96484375 -23 35 C-24.703125 32.56640625 -24.703125 32.56640625 -26.25 29.5625 C-26.77078125 28.57378906 -27.2915625 27.58507812 -27.828125 26.56640625 C-29 24 -29 24 -29 22 C-27.25617577 20.72359257 -25.45159728 19.52985118 -23.625 18.375 C-15.19476798 12.89385975 -7.57777243 6.58936733 0 0 Z " fill="#6296F4" transform="translate(396,409)"/>
<path d="M0 0 C3.67446149 1.58337451 6.31205938 3.8772082 9.3125 6.5 C16.10662748 12.3287826 23.47788675 17.17022783 31 22 C29.8335158 25.80470079 28.55623932 29.04573999 26.375 32.375 C25.92898437 33.06335938 25.48296875 33.75171875 25.0234375 34.4609375 C24.68570313 34.96882813 24.34796875 35.47671875 24 36 C14.09631908 34.47268535 3.36053622 23.21796933 -4 17 C-5.22863094 15.97852195 -6.45768729 14.95755494 -7.6875 13.9375 C-8.450625 13.298125 -9.21375 12.65875 -10 12 C-8.52278578 8.54798361 -6.56205999 6.35038064 -3.875 3.75 C-3.15054688 3.04359375 -2.42609375 2.3371875 -1.6796875 1.609375 C-1.12539062 1.07828125 -0.57109375 0.5471875 0 0 Z " fill="#6296F4" transform="translate(114,409)"/>
<path d="M0 0 C3.80470079 1.1664842 7.04573999 2.44376068 10.375 4.625 C11.06335938 5.07101562 11.75171875 5.51703125 12.4609375 5.9765625 C12.96882813 6.31429688 13.47671875 6.65203125 14 7 C12.47268535 16.90368092 1.21796933 27.63946378 -5 35 C-6.02147805 36.22863094 -7.04244506 37.45768729 -8.0625 38.6875 C-8.701875 39.450625 -9.34125 40.21375 -10 41 C-13.45201639 39.52278578 -15.64961936 37.56205999 -18.25 34.875 C-18.95640625 34.15054688 -19.6628125 33.42609375 -20.390625 32.6796875 C-20.92171875 32.12539063 -21.4528125 31.57109375 -22 31 C-20.41662549 27.32553851 -18.1227918 24.68794062 -15.5 21.6875 C-9.6712174 14.89337252 -4.82977217 7.52211325 0 0 Z " fill="#6296F4" transform="translate(431,367)"/>
<path d="M0 0 C10.55651503 4.27456201 19.80895786 21.71343678 26 31 C25.96484375 32.984375 25.96484375 32.984375 25 35 C22.56640625 36.703125 22.56640625 36.703125 19.5625 38.25 C18.07943359 39.03117187 18.07943359 39.03117187 16.56640625 39.828125 C14 41 14 41 12 41 C10.72359257 39.25617577 9.52985118 37.45159728 8.375 35.625 C2.89385975 27.19476798 -3.41063267 19.57777243 -10 12 C-8.52278578 8.54798361 -6.56205999 6.35038064 -3.875 3.75 C-3.15054687 3.04359375 -2.42609375 2.3371875 -1.6796875 1.609375 C-1.12539063 1.07828125 -0.57109375 0.5471875 0 0 Z " fill="#6296F4" transform="translate(419,104)"/>
<path d="M0 0 C9.90368092 1.52731465 20.63946378 12.78203067 28 19 C29.22863094 20.02147805 30.45768729 21.04244506 31.6875 22.0625 C32.450625 22.701875 33.21375 23.34125 34 24 C32.52278578 27.45201639 30.56205999 29.64961936 27.875 32.25 C27.15054688 32.95640625 26.42609375 33.6628125 25.6796875 34.390625 C25.12539063 34.92171875 24.57109375 35.4528125 24 36 C20.29190775 34.4033391 17.60047991 32.07151515 14.5625 29.4375 C7.94820847 23.79345676 0.79941811 17.89970905 -7 14 C-5.53967505 8.68972746 -3.01679014 4.53669968 0 0 Z " fill="#6296F4" transform="translate(374,67)"/>
<path d="M0 0 C2.99361971 1.43299238 3.76639671 3.49096355 5.265625 6.40234375 C6.04679687 7.88541016 6.04679687 7.88541016 6.84375 9.3984375 C8.015625 11.96484375 8.015625 11.96484375 8.015625 13.96484375 C6.27180077 15.24125118 4.46722228 16.43499257 2.640625 17.58984375 C-5.78960702 23.070984 -13.40660257 29.37547642 -20.984375 35.96484375 C-24.43639139 34.48762953 -26.63399436 32.52690374 -29.234375 29.83984375 C-29.94078125 29.11539063 -30.6471875 28.3909375 -31.375 27.64453125 C-31.90609375 27.09023437 -32.4371875 26.5359375 -32.984375 25.96484375 C-30.12015746 18.89133414 -7.925479 -0.14041203 0 0 Z " fill="#6296F4" transform="translate(136.984375,67.03515625)"/>
<path d="M0 0 C1.27640743 1.74382423 2.47014882 3.54840272 3.625 5.375 C9.10614025 13.80523202 15.41063267 21.42222757 22 29 C20.52278578 32.45201639 18.56205999 34.64961936 15.875 37.25 C15.15054688 37.95640625 14.42609375 38.6628125 13.6796875 39.390625 C13.12539062 39.92171875 12.57109375 40.4528125 12 41 C1.44348497 36.72543799 -7.80895786 19.28656322 -14 10 C-14 9.01 -14 8.02 -14 7 C-11.4453125 5.17578125 -11.4453125 5.17578125 -8.125 3.3125 C-7.03445312 2.68988281 -5.94390625 2.06726563 -4.8203125 1.42578125 C-2 0 -2 0 0 0 Z " fill="#6296F4" transform="translate(81,367)"/>
<path d="M0 0 C3.45201639 1.47721422 5.64961936 3.43794001 8.25 6.125 C8.95640625 6.84945312 9.6628125 7.57390625 10.390625 8.3203125 C10.92171875 8.87460938 11.4528125 9.42890625 12 10 C10.41662549 13.67446149 8.1227918 16.31205938 5.5 19.3125 C-0.3287826 26.10662748 -5.17022783 33.47788675 -10 41 C-13.80470079 39.8335158 -17.04573999 38.55623932 -20.375 36.375 C-21.40753906 35.70597656 -21.40753906 35.70597656 -22.4609375 35.0234375 C-22.96882813 34.68570313 -23.47671875 34.34796875 -24 34 C-22.47268535 24.09631908 -11.21796933 13.36053622 -5 6 C-3.97852195 4.77136906 -2.95755494 3.54231271 -1.9375 2.3125 C-1.298125 1.549375 -0.65875 0.78625 0 0 Z " fill="#6296F4" transform="translate(91,104)"/>
<path d="M0 0 C5.61 0 11.22 0 17 0 C14.35751295 35.28497409 14.35751295 35.28497409 11 42 C9.62410383 41.71259058 8.24932678 41.41982258 6.875 41.125 C6.10929687 40.96257812 5.34359375 40.80015625 4.5546875 40.6328125 C1.64227877 39.91139015 -1.16457354 38.97801666 -4 38 C-3.68955976 35.60388361 -3.37671642 33.20812165 -3.0625 30.8125 C-2.97548828 30.13896484 -2.88847656 29.46542969 -2.79882812 28.77148438 C-2.43674074 26.02230237 -2.06682427 23.30267462 -1.46875 20.59375 C-0.75584026 16.64898276 -0.63005518 12.6869657 -0.4375 8.6875 C-0.39431641 7.85154297 -0.35113281 7.01558594 -0.30664062 6.15429688 C-0.20114693 4.10303065 -0.10012685 2.0515352 0 0 Z " fill="#6296F4" transform="translate(463,264)"/>
</svg>
