<?xml version="1.0" encoding="UTF-8"?>
<svg version="1.1" xmlns="http://www.w3.org/2000/svg" width="512" height="512">
<path d="M0 0 C0.79770813 0.00182281 1.59541626 0.00364563 2.41729736 0.00552368 C41.34245016 0.15399698 79.07106054 8.0695784 114.125 25.3125 C114.87088379 25.6739209 115.61676758 26.0353418 116.38525391 26.40771484 C133.39841566 34.72645324 149.74193671 44.9535433 164.125 57.3125 C165.18140416 58.1872708 166.23877284 59.06087757 167.296875 59.93359375 C180.08900395 70.5780732 191.94274846 82.1242254 202.125 95.3125 C203.1160382 96.5412924 204.10831536 97.76908618 205.1015625 98.99609375 C224.15398869 122.83253312 238.79754597 150.94980082 247.125 180.3125 C247.52259521 181.70903809 247.52259521 181.70903809 247.92822266 183.13378906 C253.4499881 202.93758918 257.62848296 223.7070429 258.125 244.3125 C258.15078125 245.22451172 258.1765625 246.13652344 258.203125 247.07617188 C259.95216298 317.08141708 235.54882379 383.25304851 187.27587891 434.26660156 C179.66426494 442.19107482 171.83459193 449.59259933 163.125 456.3125 C161.65546875 457.49005859 161.65546875 457.49005859 160.15625 458.69140625 C130.80781857 482.04773203 96.8857035 497.63850605 60.5625 506.5625 C59.61922852 506.79670654 58.67595703 507.03091309 57.70410156 507.2722168 C40.49167735 511.31989396 23.69673377 512.80623568 6.03515625 512.70361328 C2.75999099 512.687549 -0.51393455 512.70355215 -3.7890625 512.72265625 C-21.90752141 512.74161199 -39.64379734 511.0594877 -57.25 506.625 C-58.2805249 506.36936279 -59.3110498 506.11372559 -60.37280273 505.8503418 C-99.46847247 495.8719491 -137.66964777 477.92602471 -167.16015625 449.88671875 C-168.80252497 448.23398132 -168.80252497 448.23398132 -170.875 447.3125 C-170.875 446.6525 -170.875 445.9925 -170.875 445.3125 C-171.40480469 445.10882813 -171.93460937 444.90515625 -172.48046875 444.6953125 C-175.91579646 442.71145278 -178.42591752 440.01002332 -181.1875 437.1875 C-181.73083984 436.64351563 -182.27417969 436.09953125 -182.83398438 435.5390625 C-224.4833393 393.44715244 -253.54704672 332.16469896 -254.1484375 272.5546875 C-254.16729759 270.86149384 -254.16729759 270.86149384 -254.1865387 269.13409424 C-254.60757754 222.25347874 -254.60757754 222.25347874 -248.875 199.3125 C-248.61267578 198.22533691 -248.35035156 197.13817383 -248.08007812 196.01806641 C-237.72135485 153.90625433 -217.47655204 116.74116363 -188.875 84.3125 C-188.40674805 83.78108398 -187.93849609 83.24966797 -187.45605469 82.70214844 C-182.53445431 77.14983172 -177.56835496 71.76366035 -171.86328125 66.99609375 C-170.4727738 65.81866995 -169.11809993 64.59820219 -167.79296875 63.34765625 C-123.9249553 22.02054988 -59.66241699 -0.28607738 0 0 Z " fill="#6E7CCA" transform="translate(253.875,-0.3125)"/>
<path d="M0 0 C0.79770813 0.00182281 1.59541626 0.00364563 2.41729736 0.00552368 C41.34245016 0.15399698 79.07106054 8.0695784 114.125 25.3125 C114.87088379 25.6739209 115.61676758 26.0353418 116.38525391 26.40771484 C133.39841566 34.72645324 149.74193671 44.9535433 164.125 57.3125 C165.18140416 58.1872708 166.23877284 59.06087757 167.296875 59.93359375 C180.08900395 70.5780732 191.94274846 82.1242254 202.125 95.3125 C203.1160382 96.5412924 204.10831536 97.76908618 205.1015625 98.99609375 C224.15398869 122.83253312 238.79754597 150.94980082 247.125 180.3125 C247.52259521 181.70903809 247.52259521 181.70903809 247.92822266 183.13378906 C253.4499881 202.93758918 257.62848296 223.7070429 258.125 244.3125 C258.15078125 245.22451172 258.1765625 246.13652344 258.203125 247.07617188 C259.95216298 317.08141708 235.54882379 383.25304851 187.27587891 434.26660156 C179.66426494 442.19107482 171.83459193 449.59259933 163.125 456.3125 C161.65546875 457.49005859 161.65546875 457.49005859 160.15625 458.69140625 C130.80781857 482.04773203 96.8857035 497.63850605 60.5625 506.5625 C59.61922852 506.79670654 58.67595703 507.03091309 57.70410156 507.2722168 C40.49167735 511.31989396 23.69673377 512.80623568 6.03515625 512.70361328 C2.75999099 512.687549 -0.51393455 512.70355215 -3.7890625 512.72265625 C-21.90752141 512.74161199 -39.64379734 511.0594877 -57.25 506.625 C-58.2805249 506.36936279 -59.3110498 506.11372559 -60.37280273 505.8503418 C-99.46847247 495.8719491 -137.66964777 477.92602471 -167.16015625 449.88671875 C-168.80252497 448.23398132 -168.80252497 448.23398132 -170.875 447.3125 C-170.875 446.6525 -170.875 445.9925 -170.875 445.3125 C-171.40480469 445.10882813 -171.93460937 444.90515625 -172.48046875 444.6953125 C-175.91579646 442.71145278 -178.42591752 440.01002332 -181.1875 437.1875 C-181.73083984 436.64351563 -182.27417969 436.09953125 -182.83398438 435.5390625 C-224.4833393 393.44715244 -253.54704672 332.16469896 -254.1484375 272.5546875 C-254.16729759 270.86149384 -254.16729759 270.86149384 -254.1865387 269.13409424 C-254.60757754 222.25347874 -254.60757754 222.25347874 -248.875 199.3125 C-248.61267578 198.22533691 -248.35035156 197.13817383 -248.08007812 196.01806641 C-237.72135485 153.90625433 -217.47655204 116.74116363 -188.875 84.3125 C-188.40674805 83.78108398 -187.93849609 83.24966797 -187.45605469 82.70214844 C-182.53445431 77.14983172 -177.56835496 71.76366035 -171.86328125 66.99609375 C-170.4727738 65.81866995 -169.11809993 64.59820219 -167.79296875 63.34765625 C-123.9249553 22.02054988 -59.66241699 -0.28607738 0 0 Z M-137.5625 102.22265625 C-139.52485514 103.99606841 -141.52161409 105.69400245 -143.5625 107.375 C-147.42513196 110.6730245 -150.60605543 114.43819532 -153.875 118.3125 C-154.71160156 119.26125 -155.54820312 120.21 -156.41015625 121.1875 C-194.25893036 164.36413902 -209.09020772 220.02542967 -205.45703125 276.5703125 C-203.51838233 301.40644404 -195.90707738 326.04956907 -184.875 348.3125 C-184.53388184 349.01632812 -184.19276367 349.72015625 -183.84130859 350.4453125 C-161.76247292 395.69304281 -122.65720592 429.54314256 -76.875 449.3125 C-76.2164502 449.59818848 -75.55790039 449.88387695 -74.87939453 450.17822266 C-31.67893969 468.53150168 21.94177099 470.44519217 66.125 454.3125 C67.47779769 453.86433593 68.83203049 453.42048581 70.1875 452.98046875 C97.10589578 444.10726417 121.17591829 429.46310442 141.984375 410.265625 C143.71841258 408.68347392 145.47199382 407.20303119 147.3125 405.75 C150.1791625 403.26555917 152.57054056 400.67595219 155.01953125 397.7890625 C156.62036964 395.90607264 158.24084469 394.0538253 159.88671875 392.2109375 C180.56986482 368.87515777 195.36351567 340.49443671 203.125 310.3125 C203.30369629 309.65427246 203.48239258 308.99604492 203.66650391 308.31787109 C217.3956473 257.68002783 209.95287278 203.2379494 185.125 157.3125 C184.80563477 156.7138916 184.48626953 156.1152832 184.15722656 155.49853516 C169.35471018 127.92978764 147.58212143 104.3544561 122.125 86.3125 C121.47644043 85.85117676 120.82788086 85.38985352 120.15966797 84.91455078 C105.0987334 74.3038745 89.35560983 66.75855749 72.125 60.3125 C71.39474609 60.03132324 70.66449219 59.75014648 69.91210938 59.46044922 C-0.34863642 32.61798978 -82.91957654 52.27560903 -137.5625 102.22265625 Z " fill="#909AD6" transform="translate(253.875,-0.3125)"/>
<path d="M0 0 C0.79770813 0.00182281 1.59541626 0.00364563 2.41729736 0.00552368 C41.34245016 0.15399698 79.07106054 8.0695784 114.125 25.3125 C114.87088379 25.6739209 115.61676758 26.0353418 116.38525391 26.40771484 C133.39841566 34.72645324 149.74193671 44.9535433 164.125 57.3125 C165.18140416 58.1872708 166.23877284 59.06087757 167.296875 59.93359375 C180.08900395 70.5780732 191.94274846 82.1242254 202.125 95.3125 C203.1160382 96.5412924 204.10831536 97.76908618 205.1015625 98.99609375 C217.08460556 113.98804681 226.38854013 130.31963038 234.75 147.5625 C235.24701416 148.58537109 235.74402832 149.60824219 236.25610352 150.66210938 C239.13670612 156.75597999 241.40806024 162.79279354 243.125 169.3125 C233.84729809 172.14574063 224.57592723 174.77780462 215.11303711 176.92163086 C210.09146942 178.06233411 205.15391677 179.39191702 200.2265625 180.89453125 C198.125 181.3125 198.125 181.3125 195.125 180.3125 C193.84007004 177.70021315 192.7143438 175.13039811 191.625 172.4375 C177.04900384 138.16290912 152.3779218 108.82188523 122.125 87.3125 C121.47499023 86.84972656 120.82498047 86.38695313 120.15527344 85.91015625 C105.09590766 75.30172094 89.35310328 67.75761978 72.125 61.3125 C71.39474609 61.03132324 70.66449219 60.75014648 69.91210938 60.46044922 C22.54325419 42.36362204 -34.4722555 45.36414107 -80.52294922 65.83691406 C-101.73139729 75.59255361 -120.36724335 87.50850952 -137.62890625 103.2890625 C-139.40225596 104.88661928 -141.19183982 106.39633492 -143.0625 107.875 C-146.73374127 111.05674244 -149.74220732 114.60956306 -152.875 118.3125 C-154.13183594 119.73755859 -154.13183594 119.73755859 -155.4140625 121.19140625 C-194.03670448 165.25764675 -208.08933266 221.56620461 -204.375 279.125 C-204.21845931 281.18829325 -204.05677716 283.2512768 -203.875 285.3125 C-213.15271375 288.14574425 -222.42480913 290.76872367 -231.88476562 292.92382812 C-236.92343382 294.07349608 -241.90245595 295.37076217 -246.87109375 296.796875 C-248.875 297.3125 -248.875 297.3125 -250.875 297.3125 C-253.22725777 283.56356015 -253.28074683 269.81579209 -253.30053711 255.89892578 C-253.31237121 251.9801464 -253.36163297 248.06297737 -253.41210938 244.14453125 C-253.7949789 184.53097142 -227.82438137 128.47361353 -188.875 84.3125 C-188.40674805 83.78108398 -187.93849609 83.24966797 -187.45605469 82.70214844 C-182.53445431 77.14983172 -177.56835496 71.76366035 -171.86328125 66.99609375 C-170.4727738 65.81866995 -169.11809993 64.59820219 -167.79296875 63.34765625 C-123.9249553 22.02054988 -59.66241699 -0.28607738 0 0 Z " fill="#B1B8E2" transform="translate(253.875,-0.3125)"/>
<path d="M0 0 C2.33938973 3.01360114 4.36495503 6.1299343 6.34375 9.390625 C7.00310547 10.47601563 7.66246094 11.56140625 8.34179688 12.6796875 C9.0613336 13.86970963 9.78073044 15.05981637 10.5 16.25 C11.25584731 17.49740314 12.01170695 18.74479882 12.76757812 19.9921875 C18.80603879 29.97050248 24.76256267 39.99680593 30.70361328 50.0333252 C36.24410211 59.39172878 41.8384225 68.71437617 47.5 78 C53.97742096 88.62369885 60.35801385 99.30174817 66.68988037 110.01281738 C71.06157134 117.40745979 75.45919497 124.78345433 79.9453125 132.109375 C80.34236389 132.75861938 80.73941528 133.40786377 81.14849854 134.07678223 C83.0365642 137.1624076 84.9304432 140.24421048 86.83398438 143.3203125 C87.83268555 144.94839844 87.83268555 144.94839844 88.8515625 146.609375 C89.43760254 147.55780273 90.02364258 148.50623047 90.62744141 149.48339844 C91.8443278 151.71457327 92.54733796 153.51728355 93 156 C92.29093506 156.40726318 91.58187012 156.81452637 90.85131836 157.23413086 C74.12652461 166.82087996 74.12652461 166.82087996 57.546875 176.6550293 C49.38040628 181.59350486 41.1482608 186.42160123 32.92871094 191.27099609 C29.93313668 193.03947366 26.93901873 194.8103935 23.9453125 196.58203125 C22.95990479 197.16500977 21.97449707 197.74798828 20.95922852 198.34863281 C19.07929706 199.46090579 17.19956509 200.57351603 15.32006836 201.68652344 C13.63871483 202.68089099 11.95424594 203.67001737 10.26611328 204.65283203 C8.82230091 205.51115531 7.39595608 206.40009633 5.99560547 207.32763672 C1.64485103 210.13317576 1.64485103 210.13317576 -1.515625 209.48046875 C-2.33546875 208.99191406 -3.1553125 208.50335938 -4 208 C-5.02609375 207.45988281 -6.0521875 206.91976562 -7.109375 206.36328125 C-8.32537799 205.68407544 -9.53872886 205.00010891 -10.75 204.3125 C-11.43553955 203.92513672 -12.1210791 203.53777344 -12.82739258 203.13867188 C-20.24879915 198.91127814 -27.55445338 194.49156417 -34.86865234 190.08227539 C-43.17157804 185.08183251 -51.51084248 180.14718397 -59.875 175.25 C-60.48551208 174.89253693 -61.09602417 174.53507385 -61.72503662 174.16677856 C-72.13032221 168.0771937 -82.55553909 162.0221487 -93 156 C-91.47860702 150.36454433 -88.6742458 145.98589043 -85.5625 141.125 C-79.73989501 131.8805205 -74.11990912 122.5299739 -68.5625 113.125 C-61.39249711 101.0044787 -54.13693738 88.9413009 -46.78955078 76.92724609 C-43.45720495 71.47638299 -40.13230249 66.02100862 -36.8125 60.5625 C-36.46225769 59.98687317 -36.11201538 59.41124634 -35.75115967 58.81817627 C-31.4643451 51.76838246 -27.21508801 44.69754738 -23.01171875 37.59765625 C-22.59291946 36.89046951 -22.17412018 36.18328278 -21.74263 35.45466614 C-19.71825859 32.03430804 -17.69773683 28.61175126 -15.68286133 25.18579102 C-10.6538933 16.65682899 -5.41290519 8.29051051 0 0 Z " fill="#FEFCFE" transform="translate(258,104)"/>
<path d="M0 0 C0.33 0 0.66 0 1 0 C1 68.97 1 137.94 1 209 C-11.3968254 202.23809524 -11.3968254 202.23809524 -16.234375 199.44921875 C-17.82523926 198.53245361 -17.82523926 198.53245361 -19.44824219 197.59716797 C-20.53782227 196.96697754 -21.62740234 196.33678711 -22.75 195.6875 C-23.3212561 195.35752014 -23.89251221 195.02754028 -24.4810791 194.68756104 C-32.09128161 190.29069077 -39.66655282 185.84430163 -47.1875 181.296875 C-62.01183464 172.34117609 -76.99398638 163.64665219 -92 155 C-90.47860702 149.36454433 -87.6742458 144.98589043 -84.5625 140.125 C-78.73989501 130.8805205 -73.11990912 121.5299739 -67.5625 112.125 C-60.39249711 100.0044787 -53.13693738 87.9413009 -45.78955078 75.92724609 C-42.45720537 70.47638369 -39.13205763 65.02115703 -35.8125 59.5625 C-35.46259003 58.98720551 -35.11268005 58.41191101 -34.75216675 57.81918335 C-27.9500499 46.62800037 -21.25595353 35.37356458 -14.5949707 24.09790039 C-10.93056321 17.89847391 -7.24822172 11.71016236 -3.50390625 5.55859375 C-2.52852905 3.95262329 -2.52852905 3.95262329 -1.53344727 2.31420898 C-1.02740967 1.55052002 -0.52137207 0.78683105 0 0 Z " fill="#AFE6FE" transform="translate(257,105)"/>
<path d="M0 0 C3.28224575 1.24591809 6.27106375 2.63781891 9.28125 4.44140625 C10.10794189 4.93366699 10.93463379 5.42592773 11.78637695 5.93310547 C12.68187256 6.47080566 13.57736816 7.00850586 14.5 7.5625 C16.48269912 8.74411702 18.46579244 9.92507277 20.44921875 11.10546875 C22.03742432 12.05172119 22.03742432 12.05172119 23.65771484 13.01708984 C28.91524634 16.1362769 34.19539032 19.21655164 39.47372437 22.300354 C51.55692648 29.36220784 63.58472982 36.51044281 75.57421875 43.73046875 C76.48091309 44.27106934 77.38760742 44.81166992 78.32177734 45.36865234 C80.13983753 46.47606147 81.93688321 47.61857558 83.71337891 48.79150391 C84.57753418 49.35144043 85.44168945 49.91137695 86.33203125 50.48828125 C87.46668823 51.24878784 87.46668823 51.24878784 88.62426758 52.0246582 C91.86255522 53.35411654 93.64946752 52.93424732 97 52 C99.95343553 50.61291241 99.95343553 50.61291241 102.91015625 48.78125 C103.46637665 48.45163269 104.02259705 48.12201538 104.59567261 47.78240967 C106.42322026 46.69685702 108.24267577 45.59844206 110.0625 44.5 C111.35105388 43.73175694 112.64020881 42.96452119 113.92993164 42.19824219 C116.6134874 40.6028123 119.2943956 39.00306114 121.97363281 37.40039062 C127.6656056 34.00063235 133.39145595 30.65897782 139.11605835 27.3145752 C149.38664177 21.31174313 159.63785561 15.27617835 169.86303711 9.19628906 C175.19160866 6.03619335 180.56790617 2.97867968 186 0 C183.82052212 4.56252638 180.98184139 8.59038603 178.125 12.75 C177.25488281 14.02037109 177.25488281 14.02037109 176.3671875 15.31640625 C172.23387794 21.30970511 167.93549567 27.15001063 163.52197266 32.93847656 C159.67665408 38.01434746 156.06508447 43.22437382 152.5 48.5 C147.97156792 55.200974 143.27330066 61.72103542 138.37670898 68.15673828 C134.49109481 73.28592819 130.82807647 78.54073993 127.2121582 83.86230469 C123.74634384 88.9500336 120.17896495 93.9558865 116.5625 98.9375 C112.15067162 105.01610687 107.76944408 111.11414179 103.4375 117.25 C102.94902588 117.94085693 102.46055176 118.63171387 101.95727539 119.34350586 C99.24531493 123.19156426 96.59303773 127.07078519 94 131 C89.39353712 126.76308545 86.02129822 121.96629258 82.5 116.8125 C81.25116581 115.00570407 80.001141 113.19973057 78.75 111.39453125 C77.80833984 110.03448975 77.80833984 110.03448975 76.84765625 108.64697266 C74.1131517 104.72949137 71.31070726 100.86299388 68.5 97 C63.32673204 89.87730479 58.26373525 82.68306382 53.23046875 75.4609375 C49.37261559 69.9350547 45.4598286 64.45319462 41.5 59 C36.93378052 52.71172695 32.44346485 46.37559282 28 40 C20.60464931 29.39218464 13.06330567 18.89209446 5.41015625 8.46875 C4.67667969 7.4684375 3.94320312 6.468125 3.1875 5.4375 C2.56230469 4.59058594 1.93710938 3.74367188 1.29296875 2.87109375 C0 1 0 1 0 0 Z " fill="#FDFBFE" transform="translate(165,277)"/>
<path d="M0 0 C0 32.01 0 64.02 0 97 C-12.3968254 90.23809524 -12.3968254 90.23809524 -17.234375 87.44921875 C-18.82523926 86.53245361 -18.82523926 86.53245361 -20.44824219 85.59716797 C-21.53782227 84.96697754 -22.62740234 84.33678711 -23.75 83.6875 C-24.3212561 83.35752014 -24.89251221 83.02754028 -25.4810791 82.68756104 C-32.50378127 78.63012494 -39.50833063 74.54745044 -46.44702148 70.34790039 C-51.87593866 67.0621576 -57.34413872 63.84457135 -62.8125 60.625 C-72.60608377 54.85362937 -82.32168481 48.9623201 -92 43 C-88.77705028 39.29950099 -85.18835876 37.41631137 -80.78125 35.453125 C-80.06300049 35.12470108 -79.34475098 34.79627716 -78.60473633 34.457901 C-76.2404079 33.37973631 -73.87039565 32.31475113 -71.5 31.25 C-69.84671469 30.49958178 -68.1937239 29.74851438 -66.54101562 28.99682617 C-53.41769893 23.04057867 -40.25213205 17.17562132 -27.06835938 11.35449219 C-26.00941467 10.88669846 -26.00941467 10.88669846 -24.92907715 10.40945435 C-23.5595377 9.80447354 -22.18983254 9.19986772 -20.81994629 8.59567261 C-15.32661163 6.16483215 -9.88622365 3.63082248 -4.45898438 1.05541992 C-2 0 -2 0 0 0 Z " fill="#C7F6F6" transform="translate(258,217)"/>
<path d="M0 0 C3.28224575 1.24591809 6.27106375 2.63781891 9.28125 4.44140625 C10.10794189 4.93366699 10.93463379 5.42592773 11.78637695 5.93310547 C12.68187256 6.47080566 13.57736816 7.00850586 14.5 7.5625 C16.48269912 8.74411702 18.46579244 9.92507277 20.44921875 11.10546875 C22.03742432 12.05172119 22.03742432 12.05172119 23.65771484 13.01708984 C28.91524634 16.1362769 34.19539032 19.21655164 39.47372437 22.300354 C52.47643911 29.89960379 65.41315464 37.60263801 78.31005859 45.38037109 C81.84061139 47.50613686 85.37838784 49.61976694 88.91723633 51.73168945 C90.63764277 52.77934055 92.32400798 53.88267198 94 55 C94.25699532 57.45833552 94.31999436 59.65700708 94.2487793 62.11181641 C94.23946381 62.84362625 94.23014832 63.5754361 94.22055054 64.329422 C94.18611113 66.75393399 94.13023108 69.17746074 94.07421875 71.6015625 C94.04619336 73.2802011 94.01950214 74.95886246 93.99409485 76.63754272 C93.92355881 81.06017264 93.83485377 85.4822605 93.74243164 89.90447998 C93.65135099 94.41529978 93.57735941 98.92639577 93.50195312 103.4375 C93.35141211 112.29202223 93.1816859 121.14606594 93 130 C90.37242316 127.41308129 88.09398537 124.90761963 86.00390625 121.8671875 C85.4521875 121.07054687 84.90046875 120.27390625 84.33203125 119.453125 C83.74808594 118.60234375 83.16414063 117.7515625 82.5625 116.875 C81.30453023 115.05910222 80.04539143 113.24401381 78.78515625 111.4296875 C78.15109863 110.51670898 77.51704102 109.60373047 76.86376953 108.66308594 C74.12023058 104.74292312 71.31436333 100.86947876 68.5 97 C63.32687213 89.87720083 58.26373746 82.683067 53.23046875 75.4609375 C49.37261559 69.9350547 45.4598286 64.45319462 41.5 59 C36.93378052 52.71172695 32.44346485 46.37559282 28 40 C20.60464931 29.39218464 13.06330567 18.89209446 5.41015625 8.46875 C4.67667969 7.4684375 3.94320312 6.468125 3.1875 5.4375 C2.56230469 4.59058594 1.93710938 3.74367188 1.29296875 2.87109375 C0 1 0 1 0 0 Z " fill="#AFE5FE" transform="translate(165,277)"/>
<path d="M0 0 C0.33 0 0.66 0 1 0 C1.01213028 0.92389526 1.01213028 0.92389526 1.02450562 1.86645508 C1.11148484 8.3571212 1.21101178 14.84751401 1.31738281 21.33789062 C1.35534283 23.75060384 1.39024894 26.16336732 1.421875 28.57617188 C1.63915499 44.95365094 1.94550273 61.04025915 6 77 C6.38091797 78.62808594 6.38091797 78.62808594 6.76953125 80.2890625 C17.43627649 124.86244047 36.80654816 164.68385741 67.86328125 198.640625 C69.71171979 200.68167962 71.48334885 202.76374282 73.25 204.875 C110.60930364 247.43731168 166.72483714 269.89400034 221 280 C221 280.33 221 280.66 221 281 C212.85685553 280.52633144 205.1646389 279.39653111 197.25 277.4375 C196.17435791 277.17283936 195.09871582 276.90817871 193.99047852 276.63549805 C154.7069707 266.69781679 116.33527535 248.73705442 86.71484375 220.57421875 C85.07247503 218.92148132 85.07247503 218.92148132 83 218 C83 217.34 83 216.68 83 216 C82.47019531 215.79632813 81.94039063 215.59265625 81.39453125 215.3828125 C77.95920354 213.39895278 75.44908248 210.69752332 72.6875 207.875 C72.14416016 207.33101562 71.60082031 206.78703125 71.04101562 206.2265625 C32.75489877 167.53362741 9.2668416 116.47853803 1 63 C0.81824219 61.82969238 0.63648437 60.65938477 0.44921875 59.45361328 C-0.24716827 53.71490506 -0.12329843 47.95936808 -0.09765625 42.1875 C-0.0962413 40.97803711 -0.09482635 39.76857422 -0.09336853 38.52246094 C-0.08779709 34.68161485 -0.07524984 30.8408283 -0.0625 27 C-0.05748131 24.3867196 -0.05291905 21.77343827 -0.04882812 19.16015625 C-0.03783702 12.77341739 -0.02112743 6.38671295 0 0 Z " fill="#727ECC" transform="translate(0,229)"/>
<path d="M0 0 C0.66 0.33 1.32 0.66 2 1 C-4.27 7.27 -10.54 13.54 -17 20 C-17.66 19.67 -18.32 19.34 -19 19 C-14.54644003 13.77654269 -10.02290155 8.92592544 -4.76171875 4.5078125 C-3.0881754 3.07546719 -1.53554008 1.57806273 0 0 Z " fill="#9199DA" transform="translate(87,62)"/>
<path d="M0 0 C4.30120268 1.91164564 6.199135 4.26551333 9 8 C9 8.66 9 9.32 9 10 C5.33838422 8.77946141 4.83729526 7.63217696 2.8125 4.4375 C2.28269531 3.61121094 1.75289062 2.78492188 1.20703125 1.93359375 C0.80871094 1.29550781 0.41039062 0.65742188 0 0 Z " fill="#6B77CF" transform="translate(52,412)"/>
</svg>
